<?xml version="1.0" standalone="no"?><!DOCTYPE svg PUBLIC "-//W3C//DTD SVG 1.1//EN" "http://www.w3.org/Graphics/SVG/1.1/DTD/svg11.dtd"><svg t="1700101527192" class="icon" viewBox="0 0 1024 1024" version="1.1" xmlns="http://www.w3.org/2000/svg" p-id="11041" xmlns:xlink="http://www.w3.org/1999/xlink" width="128" height="128"><path d="M20.105806 511.988907A491.978674 491.978674 0 1 0 512.08448 20.010233 491.978674 491.978674 0 0 0 20.105806 511.988907z" fill="#FDDF6D" p-id="11042"></path><path d="M300.675727 481.525567a66.174566 66.174566 0 0 0-66.174566 66.174566h132.263801a66.174566 66.174566 0 0 0-66.089235-66.174566z m577.054164-8.874474a66.174566 66.174566 0 0 0-66.174566 66.174566h132.263801a66.1319 66.1319 0 0 0-65.918572-66.174566z" fill="#F9A880" p-id="11043"></path><path d="M617.511529 931.350487a491.936008 491.936008 0 0 1-329.08087-857.581419 492.02134 492.02134 0 1 0 552.734691 803.907916 489.888052 489.888052 0 0 1-223.653821 53.673503z" fill="#FCC56B" p-id="11044"></path><path d="M492.671568 379.725106a20.010233 20.010233 0 0 1-20.010234-20.010233 46.932316 46.932316 0 0 0-93.651304 0 20.010233 20.010233 0 1 1-40.020466 0 86.824785 86.824785 0 1 1 173.692237 0 20.010233 20.010233 0 0 1-20.010233 20.010233z m338.040675 0a20.010233 20.010233 0 0 1-20.010233-20.010233 46.932316 46.932316 0 0 0-93.651304 0 20.010233 20.010233 0 0 1-40.020466 0 86.867451 86.867451 0 0 1 173.692236 0 20.010233 20.010233 0 0 1-20.010233 20.010233z m-229.96835 415.478998a146.428827 146.428827 0 0 1-127.997227-75.177038 20.052899 20.052899 0 0 1 34.985909-19.498244 106.365695 106.365695 0 0 0 92.840655 54.61215 110.93093 110.93093 0 0 0 93.864633-55.166805 20.010233 20.010233 0 0 1 34.132593 20.564888 151.292722 151.292722 0 0 1-127.826563 74.665049z" fill="#7F184C" p-id="11045"></path><path d="M934.475328 222.715175A511.647581 511.647581 0 0 0 704.592309 37.417856a20.010233 20.010233 0 0 0-15.061007 37.07653A472.224435 472.224435 0 1 1 512.08448 40.020466 20.010233 20.010233 0 0 0 512.08448 0a511.988907 511.988907 0 1 0 422.390848 222.715175z" fill="#DE941E" p-id="11046"></path><path d="M492.671568 379.725106a20.010233 20.010233 0 0 0 20.010233-20.010233 86.824785 86.824785 0 0 0-173.692237 0 20.010233 20.010233 0 1 0 40.020466 0 46.932316 46.932316 0 0 1 93.651304 0 20.010233 20.010233 0 0 0 20.010234 20.010233z m224.379138-20.010233a46.932316 46.932316 0 0 1 93.651304 0 20.010233 20.010233 0 1 0 40.020466 0 86.824785 86.824785 0 0 0-173.692236 0 20.010233 20.010233 0 0 0 40.020466 0z m-209.062137 340.856615a20.052899 20.052899 0 0 0-34.985909 19.498244 146.428827 146.428827 0 0 0 127.997227 75.177038 151.335388 151.335388 0 0 0 128.253221-74.622384 20.010233 20.010233 0 0 0-34.132594-20.564887 110.93093 110.93093 0 0 1-93.864632 55.166804 106.408361 106.408361 0 0 1-93.352644-54.654815z" p-id="11047"></path><path d="M608.338395 34.004597a20.010233 20.010233 0 1 0 20.010233-20.010234 20.010233 20.010233 0 0 0-20.13823 20.010234z" fill="#DE941E" p-id="11048"></path></svg>